<svg width="22" height="22" viewBox="0 0 22 22" fill="none" xmlns="http://www.w3.org/2000/svg"><path fill-rule="evenodd" clip-rule="evenodd" d="M1.60425 5.95817C1.60425 3.55343 3.55368 1.604 5.95842 1.604C8.36315 1.604 10.3126 3.55343 10.3126 5.95817C10.3126 8.36291 8.36315 10.3123 5.95842 10.3123C3.55368 10.3123 1.60425 8.36291 1.60425 5.95817Z" fill="#625DF5"></path><path fill-rule="evenodd" clip-rule="evenodd" d="M11.6876 16.0415C11.6876 13.6368 13.637 11.6873 16.0417 11.6873C18.4465 11.6873 20.3959 13.6368 20.3959 16.0415C20.3959 18.4462 18.4465 20.3957 16.0417 20.3957C13.637 20.3957 11.6876 18.4462 11.6876 16.0415Z" fill="#625DF5"></path><path fill-rule="evenodd" clip-rule="evenodd" d="M20.3959 5.95817C20.3959 3.55343 18.4465 1.604 16.0417 1.604C13.637 1.604 11.6876 3.55343 11.6876 5.95817C11.6876 8.36291 13.637 10.3123 16.0417 10.3123C18.4465 10.3123 20.3959 8.36291 20.3959 5.95817Z" fill="#625DF5"></path><path fill-rule="evenodd" clip-rule="evenodd" d="M10.3126 16.0415C10.3126 13.6368 8.36315 11.6873 5.95842 11.6873C3.55368 11.6873 1.60425 13.6368 1.60425 16.0415C1.60425 18.4462 3.55368 20.3957 5.95842 20.3957C8.36315 20.3957 10.3126 18.4462 10.3126 16.0415Z" fill="#625DF5"></path></svg>