<svg width="106" height="28" viewBox="0 0 106 28" fill="none" xmlns="http://www.w3.org/2000/svg">
<g opacity="" clip-path="url(#clip0_562_930)">
<path opacity="0.56" d="M10.4644 2.56899C10.4644 1.32767 11.4784 0.322266 12.7304 0.322266H13.8633C21.3722 0.322266 27.4592 6.35751 27.4592 13.8026V25.0362C27.4592 26.2775 26.4452 27.2829 25.1933 27.2829H24.0603C16.5514 27.2829 10.4644 21.2477 10.4644 13.8026V2.56899Z" fill="white"/>
<path opacity="0.88" d="M11.5975 27.2832C17.8548 27.2832 22.9274 22.2537 22.9274 16.0495C22.9274 9.84537 17.8548 4.81592 11.5975 4.81592C5.34016 4.81592 0.267578 9.84537 0.267578 16.0495C0.267578 22.2537 5.34016 27.2832 11.5975 27.2832Z" fill="white"/>
<path d="M42.9538 21.7417H46.734L41.4268 7.0625H37.2942L31.9912 21.7417H35.7281L36.6068 19.1488H42.0748L42.9538 21.7417ZM41.1571 16.3886H37.5466L39.3387 11.0146L41.1571 16.3886ZM53.7119 17.3714L51.019 10.0736H47.03L51.7716 21.3444L49.0963 27.283H52.9417L60.25 10.0736H56.3872L53.7119 17.3714ZM65.1091 16.3259C65.1091 14.3185 66.0922 13.733 67.7849 13.733H68.7632V9.94816C67.1975 9.94816 65.9225 10.7846 65.1091 12.0183V10.0736H61.5376V21.7417H65.1091V16.3259ZM81.8705 15.9076C81.8705 12.2065 79.2432 9.90634 75.815 9.90634C72.4132 9.90634 69.7595 12.2065 69.7595 15.9076C69.7595 19.6089 72.3526 21.909 75.776 21.909C79.1994 21.909 81.8705 19.6089 81.8705 15.9076ZM73.3963 15.9076C73.3963 13.9211 74.5232 13.0011 75.815 13.0011C77.0678 13.0011 78.2385 13.9211 78.2385 15.9076C78.2385 17.8732 77.0504 18.8142 75.776 18.8142C74.4795 18.8142 73.3963 17.8732 73.3963 15.9076ZM89.6051 16.3677C89.6051 20.1525 92.0675 21.8881 95.0779 21.8881C98.0835 21.8881 100.568 20.1525 100.568 16.3677V7.16708H98.6667V16.3886C98.6667 19.0652 97.2485 20.2153 95.0953 20.2153C92.9463 20.2153 91.5064 19.0652 91.5064 16.3886V7.16708H89.6051V16.3677ZM103.739 21.7417H105.636V7.16708H103.739V21.7417Z" fill="white"/>
</g>
<defs>
<clipPath id="clip0_562_930">
<rect width="105.368" height="27.3552" fill="white" transform="translate(0.267578 0.322266)"/>
</clipPath>
</defs>
</svg>
