<svg width="161" height="38" viewBox="0 0 161 38" fill="none" xmlns="http://www.w3.org/2000/svg"><path d="M32.4574 13.9978V25.9412C32.4574 28.368 31.2102 30.6227 29.1582 31.9129L19.5555 37.9522C19.3528 38.0812 19.0824 37.9337 19.0824 37.6941V33.4673C19.0824 32.773 19.4265 32.1279 20.004 31.7409L26.1293 27.6553C26.9833 27.0839 27.4994 26.1255 27.4994 25.0995V16.8669C27.4994 16.2095 27.8496 15.6013 28.4209 15.2695L31.5358 13.4755C31.9474 13.2421 32.4574 13.537 32.4574 14.01V13.9978Z" fill="#6C69FF"></path><path d="M31.714 10.4228L18.1486 18.2561C17.1963 18.8029 16.6127 19.8166 16.6127 20.9164V37.4184C16.6127 37.658 16.3546 37.8055 16.1519 37.6826L3.5818 30.3716C1.36391 29.0814 0 26.716 0 24.148V14.1582C0 11.1478 1.60352 8.3647 4.2146 6.85948L15.6542 0.248821C16.2256 -0.0829405 16.926 -0.0829405 17.4974 0.248821L20.3603 1.90149C20.9747 2.25782 20.9747 3.14252 20.3603 3.49886L6.70282 11.3813C5.75054 11.9281 5.16688 12.9418 5.16688 14.0415V23.5397C5.16688 24.6395 5.75054 25.6532 6.70282 26.2L11.2308 28.8111C11.3291 28.8663 11.4458 28.7988 11.4458 28.6882V19.2514C11.4458 17.3346 12.4656 15.5713 14.1245 14.6129L27.2475 7.03765C27.8618 6.68131 28.6237 6.71203 29.2073 7.11138L31.7693 8.86234C32.3283 9.24325 32.2976 10.0788 31.7078 10.4228H31.714Z" fill="#6C69FF"></path><path d="M47.2319 8.71687H51.6129V20.616C51.6129 21.5926 51.7465 22.4633 52.0137 23.228C52.2809 23.9835 52.6771 24.6239 53.2022 25.149C53.7366 25.6742 54.3954 26.075 55.1785 26.3514C55.9617 26.6186 56.8738 26.7522 57.9149 26.7522C58.9468 26.7522 59.8543 26.6186 60.6375 26.3514C61.4298 26.075 62.0886 25.6742 62.6138 25.149C63.1481 24.6239 63.5489 23.9835 63.8161 23.228C64.0833 22.4633 64.2169 21.5926 64.2169 20.616V8.71687H68.5979V21.1412C68.5979 22.5601 68.3583 23.8499 67.8792 25.0108C67.4001 26.1717 66.7045 27.1668 65.7924 27.996C64.8803 28.8252 63.7608 29.4655 62.4341 29.917C61.1166 30.3684 59.6102 30.5942 57.9149 30.5942C56.2196 30.5942 54.7086 30.3684 53.3819 29.917C52.0644 29.4655 50.9496 28.8252 50.0374 27.996C49.1253 27.1668 48.4297 26.1717 47.9506 25.0108C47.4715 23.8499 47.2319 22.5601 47.2319 21.1412V8.71687Z" fill="white"></path><path d="M71.6245 8.71687H76.0331V30.3178H71.6245V8.71687Z" fill="white"></path><path d="M78.0923 22.233C78.0923 20.9339 78.3365 19.7638 78.8248 18.7227C79.3131 17.6723 79.9857 16.7786 80.8425 16.0416C81.7086 15.2953 82.7313 14.724 83.9106 14.3279C85.0992 13.9225 86.3844 13.7198 87.7664 13.7198C88.3561 13.7198 88.9366 13.7566 89.5078 13.8303C90.0882 13.904 90.641 14.0054 91.1662 14.1344C91.7006 14.2634 92.1981 14.42 92.6588 14.6043C93.1287 14.7793 93.5433 14.9728 93.9026 15.1847V7.39014H97.9934V30.3178H93.9026V28.7837C93.5433 29.0325 93.1194 29.2674 92.6311 29.4886C92.1428 29.7097 91.6177 29.9032 91.0556 30.069C90.4936 30.2348 89.9086 30.3638 89.3005 30.456C88.7016 30.5573 88.1073 30.608 87.5177 30.608C86.1357 30.608 84.8642 30.4053 83.7033 29.9999C82.5516 29.5945 81.5612 29.0233 80.732 28.2862C79.9028 27.5491 79.2532 26.6692 78.7833 25.6466C78.3227 24.6147 78.0923 23.4768 78.0923 22.233ZM82.3904 22.233C82.3904 22.8871 82.5194 23.5044 82.7774 24.0849C83.0446 24.6653 83.4223 25.1767 83.9106 25.6189C84.4081 26.0519 85.0024 26.3975 85.6934 26.6554C86.3936 26.9042 87.1768 27.0286 88.0428 27.0286C88.5957 27.0286 89.1485 26.9779 89.7013 26.8766C90.2541 26.766 90.7838 26.614 91.2906 26.4205C91.8065 26.227 92.2856 25.9921 92.7279 25.7157C93.1793 25.4393 93.5709 25.1306 93.9026 24.7897V19.1373C93.488 18.8056 93.0504 18.5246 92.5897 18.2942C92.129 18.0639 91.6591 17.875 91.18 17.7276C90.7009 17.5802 90.2172 17.4742 89.7289 17.4097C89.2406 17.336 88.7661 17.2992 88.3054 17.2992C87.3657 17.2992 86.5272 17.4282 85.7902 17.6861C85.0623 17.9349 84.445 18.2804 83.9383 18.7227C83.4407 19.1649 83.0584 19.6855 82.7912 20.2843C82.524 20.8832 82.3904 21.5328 82.3904 22.233Z" fill="white"></path><path d="M100.467 22.1086C100.467 21.003 100.693 19.948 101.144 18.9438C101.596 17.9303 102.245 17.0366 103.093 16.2627C103.941 15.4887 104.977 14.8714 106.203 14.4108C107.437 13.9501 108.838 13.7198 110.404 13.7198C111.961 13.7198 113.361 13.9547 114.605 14.4246C115.858 14.8853 116.918 15.521 117.784 16.3318C118.659 17.1426 119.327 18.0961 119.788 19.1925C120.258 20.2889 120.493 21.4637 120.493 22.7167C120.493 22.8733 120.488 23.0438 120.479 23.228C120.479 23.4031 120.47 23.5643 120.451 23.7117H105.028C105.203 24.2 105.484 24.6469 105.871 25.0523C106.267 25.4577 106.76 25.8078 107.35 26.1026C107.939 26.3975 108.621 26.6278 109.395 26.7936C110.169 26.9503 111.026 27.0286 111.966 27.0286C112.905 27.0286 113.84 26.9318 114.771 26.7383C115.702 26.5357 116.591 26.2823 117.438 25.9782L118.82 29.1016C118.286 29.3504 117.742 29.5715 117.19 29.765C116.646 29.9492 116.075 30.1059 115.476 30.2348C114.886 30.3546 114.264 30.4468 113.61 30.5113C112.965 30.5757 112.283 30.608 111.565 30.608C109.731 30.608 108.124 30.3869 106.742 29.9446C105.359 29.5024 104.203 28.8989 103.273 28.1342C102.342 27.3695 101.642 26.4712 101.172 25.4393C100.702 24.4074 100.467 23.2971 100.467 22.1086ZM116.153 20.5193C116.006 20.0678 115.775 19.6486 115.462 19.2616C115.158 18.8655 114.776 18.5246 114.315 18.239C113.854 17.9441 113.32 17.7138 112.712 17.5479C112.104 17.3821 111.436 17.2992 110.708 17.2992C109.934 17.2992 109.229 17.3867 108.593 17.5618C107.958 17.7368 107.4 17.9718 106.921 18.2666C106.442 18.5614 106.041 18.9023 105.719 19.2893C105.406 19.6763 105.175 20.0862 105.028 20.5193H116.153Z" fill="white"></path><path d="M122.151 22.2053C122.151 21.0076 122.368 19.8928 122.801 18.8609C123.243 17.8197 123.883 16.9214 124.722 16.1659C125.569 15.4012 126.601 14.8023 127.817 14.3693C129.043 13.9363 130.438 13.7198 132.005 13.7198C132.687 13.7198 133.373 13.7612 134.064 13.8441C134.755 13.9271 135.418 14.0468 136.054 14.2035C136.699 14.3509 137.302 14.5305 137.864 14.7425C138.427 14.9452 138.915 15.1709 139.329 15.4196L137.436 18.5015C136.542 18.0869 135.695 17.7829 134.893 17.5894C134.101 17.3959 133.295 17.2992 132.475 17.2992C131.535 17.2992 130.692 17.4236 129.946 17.6723C129.199 17.9119 128.564 18.2528 128.038 18.695C127.522 19.1281 127.126 19.644 126.85 20.2429C126.583 20.8325 126.449 21.4775 126.449 22.1777C126.449 22.8779 126.592 23.5275 126.877 24.1263C127.172 24.716 127.582 25.2273 128.107 25.6604C128.642 26.0842 129.282 26.4205 130.028 26.6692C130.784 26.9088 131.622 27.0286 132.544 27.0286C133.557 27.0286 134.511 26.8858 135.405 26.6001C136.307 26.3145 137.146 25.9322 137.92 25.4531L139.813 28.535C139.325 28.8298 138.795 29.1062 138.224 29.3642C137.653 29.6129 137.04 29.8295 136.386 30.0137C135.741 30.198 135.059 30.3408 134.34 30.4422C133.631 30.5527 132.894 30.608 132.129 30.608C130.572 30.608 129.176 30.3961 127.942 29.9723C126.707 29.5484 125.661 28.9634 124.804 28.2171C123.948 27.4616 123.289 26.5725 122.828 25.5498C122.377 24.5271 122.151 23.4123 122.151 22.2053Z" fill="white"></path><path d="M142.467 7.39014H146.557V20.9339L154.186 14.01H160.447L151.92 21.6387L160.986 30.3178H154.849L148.782 24.4442L146.557 26.4343V30.3178H142.467V7.39014Z" fill="white"></path></svg>