<svg width="17" height="14" viewBox="0 0 17 14" fill="none" xmlns="http://www.w3.org/2000/svg">
<path d="M8.39742 0.5979C10.121 0.5979 11.7551 1.19588 13.1779 2.30295C14.6007 3.40113 15.8121 5.01002 16.682 7.02214C16.747 7.17487 16.747 7.35346 16.682 7.49891C14.9421 11.5232 11.8446 13.9312 8.39742 13.9312H8.38929C4.95027 13.9312 1.8527 11.5232 0.112867 7.49891C0.0478268 7.35346 0.0478268 7.17487 0.112867 7.02214C1.8527 2.99709 4.95027 0.5979 8.38929 0.5979H8.39742ZM8.39742 4.03224C6.60067 4.03224 5.14539 5.47871 5.14539 7.26457C5.14539 9.04234 6.60067 10.4888 8.39742 10.4888C10.186 10.4888 11.6413 9.04234 11.6413 7.26457C11.6413 5.47871 10.186 4.03224 8.39742 4.03224Z" fill="#4A5463"></path>
<path opacity="0.4" d="M10.4232 7.26202C10.4232 8.36909 9.51261 9.27415 8.39879 9.27415C7.27684 9.27415 6.36627 8.36909 6.36627 7.26202C6.36627 7.12465 6.38253 6.99617 6.40692 6.86687H6.44757C7.35001 6.86687 8.08172 6.15576 8.11424 5.26606C8.20367 5.25071 8.30123 5.24182 8.39879 5.24182C9.51261 5.24182 10.4232 6.14687 10.4232 7.26202Z" fill="#252F3F"></path>
</svg>