<svg width="132" height="24" viewBox="0 0 132 24" fill="none" xmlns="http://www.w3.org/2000/svg">
<g opacity="">
<path d="M24.5479 0V24H9.80761V19.1225H19.9933V14.3742H9.80761V9.69044H19.9933V5.00673H5.16696V24H0.547852V0H24.5479Z" fill="white"/>
<path d="M44.6768 13.4255V10.842H38.5664V6.37158H45.8449V3.72075H35.6909V20.1424H38.5664V13.4255H44.6768Z" fill="white"/>
<path d="M46.1886 14.5712C46.1886 18.0307 48.6821 20.412 52.1192 20.412C55.5563 20.412 58.0499 18.0307 58.0499 14.5712C58.0499 11.1116 55.5563 8.73036 52.1192 8.73036C48.6821 8.73036 46.1886 11.1116 46.1886 14.5712ZM48.9292 14.5712C48.9292 12.5493 50.2322 11.179 52.1192 11.179C54.0062 11.179 55.3092 12.5493 55.3092 14.5712C55.3092 16.593 54.0062 17.9633 52.1192 17.9633C50.2322 17.9633 48.9292 16.593 48.9292 14.5712Z" fill="white"/>
<path d="M66.8493 8.99994C66.4 8.88761 66.0181 8.84268 65.6362 8.84268C64.1536 8.84268 63.0977 9.58401 62.626 10.6848L62.4687 9.06733H59.8853V20.1424H62.626V14.7509C62.626 12.5943 63.8615 11.5384 65.8384 11.5384H66.8493V8.99994Z" fill="white"/>
<path d="M71.1081 20.1424V13.8523C71.1081 12.0551 72.164 11.2015 73.4669 11.2015C74.7699 11.2015 75.6011 12.0327 75.6011 13.5827V20.1424H78.3417V13.8523C78.3417 12.0327 79.3527 11.179 80.6781 11.179C81.981 11.179 82.8347 12.0102 82.8347 13.6052V20.1424H85.5529V12.8863C85.5529 10.3253 84.0702 8.7079 81.3745 8.7079C79.6896 8.7079 78.3867 9.53909 77.8251 10.8196C77.241 9.53909 76.0728 8.7079 74.388 8.7079C72.793 8.7079 71.6698 9.42676 71.1081 10.3478L70.8835 9.04486H68.3675V20.1424H71.1081Z" fill="white"/>
<path d="M88.3108 20.1424H94.9603C98.3525 20.1424 100.307 18.5025 100.307 15.6944C100.307 13.7849 99.4308 12.482 97.701 11.9203C99.251 11.2689 100.06 9.96591 100.06 8.14628C100.06 5.4056 98.0829 3.72075 94.848 3.72075H88.3108V20.1424ZM94.6009 6.25925C96.2183 6.25925 97.1169 7.02305 97.1169 8.43832C97.1169 9.89852 96.2408 10.7297 94.6683 10.7297H91.1862V6.25925H94.6009ZM94.848 13.1559C96.443 13.1559 97.364 13.9422 97.364 15.335C97.364 16.8176 96.4654 17.6039 94.848 17.6039H91.1862V13.1559H94.848Z" fill="white"/>
<path d="M101.551 14.5712C101.551 18.0307 104.044 20.412 107.481 20.412C110.918 20.412 113.412 18.0307 113.412 14.5712C113.412 11.1116 110.918 8.73036 107.481 8.73036C104.044 8.73036 101.551 11.1116 101.551 14.5712ZM104.291 14.5712C104.291 12.5493 105.594 11.179 107.481 11.179C109.368 11.179 110.671 12.5493 110.671 14.5712C110.671 16.593 109.368 17.9633 107.481 17.9633C105.594 17.9633 104.291 16.593 104.291 14.5712Z" fill="white"/>
<path d="M118.011 20.1424V3.42871H115.292V20.1424H118.011Z" fill="white"/>
<path d="M125.109 20.4344C126.794 20.4344 128.231 19.6931 128.905 18.4126L129.085 20.1424H131.601V3.42871H128.883V10.4601C128.187 9.35937 126.816 8.7079 125.266 8.7079C121.919 8.7079 119.897 11.179 119.897 14.6386C119.897 18.0756 121.896 20.4344 125.109 20.4344ZM125.715 17.9184C123.806 17.9184 122.638 16.5256 122.638 14.5487C122.638 12.5718 123.806 11.1565 125.715 11.1565C127.625 11.1565 128.86 12.5493 128.86 14.5487C128.86 16.548 127.625 17.9184 125.715 17.9184Z" fill="white"/>
</g>
</svg>
