<svg fill="none" height="22" viewBox="0 0 136 22" width="136" xmlns="http://www.w3.org/2000/svg" xmlns:xlink="http://www.w3.org/1999/xlink"><clipPath id="a"><path d="m0 0h135.667v22h-135.667z"/></clipPath><mask id="b" height="22" maskUnits="userSpaceOnUse" width="136" x="0" y="0"><path d="m135.263 0h-135.263v22h135.263z" fill="#fff"/></mask><g clip-path="url(#a)" opacity=".8"><g fill="#fff" mask="url(#b)"><path d="m32.2777 1.69043h-3.1908v18.21577h10.8209v-2.9389h-7.6301z"/><path d="m43.569 5.12787c.9964 0 1.8193-.82291 1.8193-1.84733 0-1.02443-.8229-1.81374-1.8193-1.81374-1.0468 0-1.8698.8005-1.8698 1.81934 0 1.01882.8285 1.84173 1.8698 1.84173zm-1.5115 14.77863h3.0397v-12.31556h-3.0397z"/><path d="m51.2775 19.9062v-6.628c0-1.9929 1.142-3.29162 3.0173-3.29162 1.573 0 2.5919.99642 2.5919 3.06772v6.8575h3.0396v-7.5853c0-3.1908-1.5954-5.10531-4.6855-5.10531-1.6682 0-3.1628.72211-3.9353 1.97046l-.2519-1.59537h-2.8158v12.31552h3.0397z"/><path d="m68.4241 20.2311c3.2133 0 5.458-1.6178 5.9787-4.316h-2.8158c-.3527 1.1699-1.4443 1.8193-3.1181 1.8193-2.0208 0-3.1629-1.0972-3.3867-3.2636l9.27-.028v-.918c0-3.84029-2.3454-6.30898-6.0344-6.30898-3.6107 0-6.1298 2.66464-6.1298 6.53278 0 3.8123 2.5694 6.4825 6.2361 6.4825zm-.0783-10.51857c1.8193 0 2.9893 1.11957 2.9893 2.81577h-6.1802c.2967-1.8418 1.3939-2.81577 3.1909-2.81577z"/><path d="m78.3046 5.12787c.9958 0 1.8186-.82291 1.8186-1.84733 0-1.02443-.8228-1.81374-1.8186-1.81374-1.0472 0-1.8642.8005-1.8642 1.81934 0 1.01882.8111 1.84173 1.8642 1.84173zm-1.5232 14.77863h3.0397v-12.31556h-3.0397z"/><path d="m82.2456 13.726c0 3.913 2.4405 6.5049 6.1798 6.5049 3.2135 0 5.6093-1.9706 5.9789-4.8366h-3.0676c-.3248 1.349-1.394 2.0935-2.9172 2.0935-1.9418 0-3.1401-1.4443-3.1401-3.7618 0-2.3176 1.2987-3.7898 3.2413-3.7898 1.444 0 2.4684.7221 2.816 2.1216h3.0397c-.3249-2.96691-2.6202-4.83661-5.9789-4.83661-3.6329 0-6.1519 2.69265-6.1519 6.50481z"/><path d="m95.9434 13.7261c0 3.8402 2.7654 6.4824 6.5826 6.4824 3.813 0 6.584-2.6366 6.584-6.4824 0-3.8402-2.766-6.48245-6.584-6.48245-3.8114.0056-6.5826 2.64225-6.5826 6.48245zm3.0455 0c0-2.2448 1.4441-3.7618 3.5371-3.7618 2.094 0 3.539 1.5226 3.539 3.7618s-1.445 3.7618-3.539 3.7618c-2.093.0056-3.5371-1.517-3.5371-3.7618z"/><path d="m114.551 19.9062v-6.628c0-1.9929 1.142-3.29162 3.018-3.29162 1.573 0 2.592.99642 2.592 3.06772v6.8575h3.039v-7.5853c0-3.1908-1.595-5.10531-4.685-5.10531-1.668 0-3.163.72211-3.936 1.97046l-.251-1.59537h-2.816v12.31552h3.039z"/><path d="m135.264 16.1948c0 2.491-2.116 4.0417-5.156 4.0417-3.067 0-5.005-1.6514-5.01-4.0585h2.883c.023 1.0692.823 1.7465 2.217 1.7465 1.416 0 2.194-.5766 2.194-1.4723 0-.627-.319-1.0692-1.416-1.3211l-2.223-.5262c-2.216-.4982-3.285-1.5451-3.285-3.5155 0-2.41834 2.037-3.86821 4.881-3.86821 2.765 0 4.629 1.60101 4.657 3.99141h-2.888c-.017-1.0469-.722-1.71867-1.892-1.71867-1.193 0-1.892.54857-1.892 1.46667 0 .6997.554 1.142 1.595 1.3939l2.222.5263c1.909.431 2.956 1.2819 3.096 2.8997z"/><path d="m17.3928 19.3982c.8005-.8005.8005-2.0937 0-2.8942l-13.89973-13.89971c-.80052-.80051-2.09365-.80051-2.894152 0-.80051.80051-.80051 2.09363 0 2.89415l13.899682 13.89976c.8005.8005 2.0937.8005 2.8942 0z"/><path d="m17.0235 9.13726c.8005-.80051.8005-2.09362 0-2.89413l-5.6427-5.642748c-.8005-.800509-2.09368-.800509-2.89419 0-.80051.800508-.80051 2.093638 0 2.894148l5.64279 5.64273c.8005.79493 2.0936.79493 2.8941 0z"/><path d="m9.50546 21.4025c.80054-.8005.80054-2.0937 0-2.8942l-5.64277-5.6428c-.80051-.8005-2.09364-.8005-2.894143 0-.80051.8005-.80051 2.0937 0 2.8942l5.642753 5.6428c.80049.8005 2.09366.8005 2.89416 0z"/></g></g></svg>