<svg width="161" height="38" viewBox="0 0 161 38" fill="none" xmlns="http://www.w3.org/2000/svg"><path d="M32.4574 13.9978V25.9412C32.4574 28.368 31.2102 30.6227 29.1582 31.9129L19.5555 37.9522C19.3528 38.0812 19.0824 37.9337 19.0824 37.6941V33.4673C19.0824 32.773 19.4265 32.1279 20.004 31.7409L26.1293 27.6553C26.9833 27.0839 27.4994 26.1255 27.4994 25.0995V16.8669C27.4994 16.2095 27.8496 15.6013 28.4209 15.2695L31.5358 13.4755C31.9474 13.2421 32.4574 13.537 32.4574 14.01V13.9978Z" fill="#625DF5"></path><path d="M31.714 10.4228L18.1486 18.2561C17.1963 18.8029 16.6127 19.8166 16.6127 20.9164V37.4184C16.6127 37.658 16.3546 37.8055 16.1519 37.6826L3.5818 30.3716C1.36391 29.0814 0 26.716 0 24.148V14.1582C0 11.1478 1.60352 8.3647 4.2146 6.85948L15.6542 0.248821C16.2256 -0.0829405 16.926 -0.0829405 17.4974 0.248821L20.3603 1.90149C20.9747 2.25782 20.9747 3.14252 20.3603 3.49886L6.70282 11.3813C5.75054 11.9281 5.16688 12.9418 5.16688 14.0415V23.5397C5.16688 24.6395 5.75054 25.6532 6.70282 26.2L11.2308 28.8111C11.3291 28.8663 11.4458 28.7988 11.4458 28.6882V19.2514C11.4458 17.3346 12.4656 15.5713 14.1245 14.6129L27.2475 7.03765C27.8618 6.68131 28.6237 6.71203 29.2073 7.11138L31.7693 8.86234C32.3283 9.24325 32.2976 10.0788 31.7078 10.4228H31.714Z" fill="#625DF5"></path><path d="M47.2324 8.71687H51.6134V20.616C51.6134 21.5926 51.747 22.4633 52.0142 23.228C52.2814 23.9835 52.6776 24.6239 53.2027 25.149C53.7371 25.6742 54.3959 26.075 55.179 26.3514C55.9622 26.6186 56.8743 26.7522 57.9154 26.7522C58.9473 26.7522 59.8548 26.6186 60.638 26.3514C61.4303 26.075 62.0891 25.6742 62.6143 25.149C63.1486 24.6239 63.5494 23.9835 63.8166 23.228C64.0838 22.4633 64.2174 21.5926 64.2174 20.616V8.71687H68.5984V21.1412C68.5984 22.5601 68.3588 23.8499 67.8797 25.0108C67.4006 26.1717 66.705 27.1668 65.7929 27.996C64.8808 28.8252 63.7613 29.4655 62.4346 29.917C61.1171 30.3684 59.6107 30.5942 57.9154 30.5942C56.2201 30.5942 54.7091 30.3684 53.3824 29.917C52.0649 29.4655 50.95 28.8252 50.0379 27.996C49.1258 27.1668 48.4302 26.1717 47.9511 25.0108C47.472 23.8499 47.2324 22.5601 47.2324 21.1412V8.71687Z" fill="#101828"></path><path d="M71.625 8.71687H76.0336V30.3178H71.625V8.71687Z" fill="#101828"></path><path d="M78.0928 22.233C78.0928 20.9339 78.337 19.7638 78.8253 18.7227C79.3136 17.6723 79.9862 16.7786 80.843 16.0416C81.7091 15.2953 82.7318 14.724 83.9111 14.3279C85.0996 13.9225 86.3849 13.7198 87.7669 13.7198C88.3566 13.7198 88.937 13.7566 89.5083 13.8303C90.0887 13.904 90.6415 14.0054 91.1667 14.1344C91.7011 14.2634 92.1986 14.42 92.6593 14.6043C93.1292 14.7793 93.5438 14.9728 93.9031 15.1847V7.39014H97.9938V30.3178H93.9031V28.7837C93.5438 29.0325 93.1199 29.2674 92.6316 29.4886C92.1433 29.7097 91.6181 29.9032 91.0561 30.069C90.4941 30.2348 89.9091 30.3638 89.301 30.456C88.7021 30.5573 88.1078 30.608 87.5182 30.608C86.1362 30.608 84.8647 30.4053 83.7038 29.9999C82.5521 29.5945 81.5617 29.0233 80.7325 28.2862C79.9033 27.5491 79.2537 26.6692 78.7838 25.6466C78.3232 24.6147 78.0928 23.4768 78.0928 22.233ZM82.3909 22.233C82.3909 22.8871 82.5199 23.5044 82.7779 24.0849C83.045 24.6653 83.4228 25.1767 83.9111 25.6189C84.4086 26.0519 85.0029 26.3975 85.6939 26.6554C86.3941 26.9042 87.1773 27.0286 88.0433 27.0286C88.5961 27.0286 89.1489 26.9779 89.7018 26.8766C90.2546 26.766 90.7843 26.614 91.2911 26.4205C91.807 26.227 92.2861 25.9921 92.7284 25.7157C93.1798 25.4393 93.5714 25.1306 93.9031 24.7897V19.1373C93.4885 18.8056 93.0508 18.5246 92.5902 18.2942C92.1295 18.0639 91.6596 17.875 91.1805 17.7276C90.7014 17.5802 90.2177 17.4742 89.7294 17.4097C89.2411 17.336 88.7666 17.2992 88.3059 17.2992C87.3661 17.2992 86.5277 17.4282 85.7906 17.6861C85.0628 17.9349 84.4455 18.2804 83.9387 18.7227C83.4412 19.1649 83.0589 19.6855 82.7917 20.2843C82.5245 20.8832 82.3909 21.5328 82.3909 22.233Z" fill="#101828"></path><path d="M100.468 22.1086C100.468 21.003 100.693 19.948 101.145 18.9438C101.596 17.9303 102.246 17.0366 103.093 16.2627C103.941 15.4887 104.978 14.8714 106.203 14.4108C107.438 13.9501 108.838 13.7198 110.404 13.7198C111.961 13.7198 113.362 13.9547 114.606 14.4246C115.859 14.8853 116.918 15.521 117.784 16.3318C118.66 17.1426 119.328 18.0961 119.788 19.1925C120.258 20.2889 120.493 21.4637 120.493 22.7167C120.493 22.8733 120.488 23.0438 120.479 23.228C120.479 23.4031 120.47 23.5643 120.452 23.7117H105.028C105.203 24.2 105.484 24.6469 105.871 25.0523C106.268 25.4577 106.76 25.8078 107.35 26.1026C107.94 26.3975 108.622 26.6278 109.395 26.7936C110.169 26.9503 111.026 27.0286 111.966 27.0286C112.906 27.0286 113.841 26.9318 114.772 26.7383C115.702 26.5357 116.591 26.2823 117.439 25.9782L118.821 29.1016C118.286 29.3504 117.743 29.5715 117.19 29.765C116.646 29.9492 116.075 30.1059 115.476 30.2348C114.887 30.3546 114.265 30.4468 113.611 30.5113C112.966 30.5757 112.284 30.608 111.565 30.608C109.732 30.608 108.124 30.3869 106.742 29.9446C105.36 29.5024 104.204 28.8989 103.273 28.1342C102.343 27.3695 101.642 26.4712 101.172 25.4393C100.703 24.4074 100.468 23.2971 100.468 22.1086ZM116.154 20.5193C116.006 20.0678 115.776 19.6486 115.463 19.2616C115.158 18.8655 114.776 18.5246 114.315 18.239C113.855 17.9441 113.32 17.7138 112.712 17.5479C112.104 17.3821 111.436 17.2992 110.708 17.2992C109.934 17.2992 109.23 17.3867 108.594 17.5618C107.958 17.7368 107.401 17.9718 106.922 18.2666C106.443 18.5614 106.042 18.9023 105.719 19.2893C105.406 19.6763 105.176 20.0862 105.028 20.5193H116.154Z" fill="#101828"></path><path d="M122.151 22.2053C122.151 21.0076 122.368 19.8928 122.801 18.8609C123.243 17.8197 123.884 16.9214 124.722 16.1659C125.57 15.4012 126.602 14.8023 127.818 14.3693C129.043 13.9363 130.439 13.7198 132.005 13.7198C132.687 13.7198 133.373 13.7612 134.064 13.8441C134.755 13.9271 135.419 14.0468 136.055 14.2035C136.699 14.3509 137.303 14.5305 137.865 14.7425C138.427 14.9452 138.915 15.1709 139.33 15.4196L137.437 18.5015C136.543 18.0869 135.695 17.7829 134.894 17.5894C134.101 17.3959 133.295 17.2992 132.475 17.2992C131.535 17.2992 130.692 17.4236 129.946 17.6723C129.2 17.9119 128.564 18.2528 128.039 18.695C127.523 19.1281 127.127 19.644 126.85 20.2429C126.583 20.8325 126.45 21.4775 126.45 22.1777C126.45 22.8779 126.592 23.5275 126.878 24.1263C127.173 24.716 127.583 25.2273 128.108 25.6604C128.642 26.0842 129.283 26.4205 130.029 26.6692C130.784 26.9088 131.623 27.0286 132.544 27.0286C133.558 27.0286 134.511 26.8858 135.405 26.6001C136.308 26.3145 137.146 25.9322 137.92 25.4531L139.814 28.535C139.325 28.8298 138.796 29.1062 138.224 29.3642C137.653 29.6129 137.04 29.8295 136.386 30.0137C135.741 30.198 135.059 30.3408 134.341 30.4422C133.631 30.5527 132.894 30.608 132.13 30.608C130.573 30.608 129.177 30.3961 127.942 29.9723C126.708 29.5484 125.662 28.9634 124.805 28.2171C123.948 27.4616 123.289 26.5725 122.829 25.5498C122.377 24.5271 122.151 23.4123 122.151 22.2053Z" fill="#101828"></path><path d="M142.467 7.39014H146.558V20.9339L154.187 14.01H160.447L151.92 21.6387L160.986 30.3178H154.85L148.783 24.4442L146.558 26.4343V30.3178H142.467V7.39014Z" fill="#101828"></path></svg>