<svg width="20" height="20" viewBox="0 0 24 24" fill="none" xmlns="http://www.w3.org/2000/svg">
<path d="M12 22C17.5228 22 22 17.5228 22 12C22 6.47715 17.5228 2 12 2C6.47715 2 2 6.47715 2 12C2 17.5228 6.47715 22 12 22Z" fill="#4F46E5"></path>
<path d="M12 13C13.6569 13 15 11.6569 15 10C15 8.34315 13.6569 7 12 7C10.3431 7 9 8.34315 9 10C9 11.6569 10.3431 13 12 13Z" fill="#ABA8DF"></path>
<path d="M5.44116 19.5488C6.43459 16.8918 8.99637 15 12 15C15.0036 15 17.5654 16.8918 18.5588 19.5488C16.8031 21.0756 14.5095 22 12 22C9.49052 22 7.19693 21.0756 5.44116 19.5488Z" fill="white"></path>
</svg>