<svg fill="none" height="28" viewBox="0 0 145 28" width="145" xmlns="http://www.w3.org/2000/svg" xmlns:xlink="http://www.w3.org/1999/xlink"><linearGradient id="a" gradientUnits="userSpaceOnUse" x1="15.9837" x2="15.9837" y1="5.32913" y2="26.0534"><stop offset="0" stop-color="#fff"/><stop offset="1" stop-color="#fff" stop-opacity="0"/></linearGradient><linearGradient id="b" gradientUnits="userSpaceOnUse" x1="8.87811" x2="8.87811" y1="6.51334" y2="21.9085"><stop offset="0" stop-color="#fff" stop-opacity="0"/><stop offset="1" stop-color="#fff"/></linearGradient><clipPath id="c"><path d="m0 0h145v27.2376h-145z"/></clipPath><g clip-path="url(#c)"><g fill="#fff"><path d="m39.0786 21.9911v-15.89835h5.9325c1.0813 0 2.0345.19917 2.8596.59752.8394.38412 1.4939.95319 1.9633 1.70723.4695.73974.7043 1.6431.7043 2.7101 0 1.0529-.2419 1.9563-.7256 2.7103-.4695.7398-1.1168 1.3088-1.942 1.7072-.8251.3983-1.7783.5975-2.8596.5975h-3.0302v5.8685zm2.9023-8.4293h3.0729c.5264 0 .9817-.0996 1.3658-.2988.3841-.2134.6829-.505.8963-.8749s.3201-.7967.3201-1.2805c0-.4978-.1067-.9247-.3201-1.28037-.2134-.36987-.5122-.65442-.8963-.85357-.3841-.21342-.8394-.32013-1.3658-.32013h-3.0729z"/><path d="m52.2549 21.9911v-16.15443h2.7955v16.15443z"/><path d="m60.7257 22.2472c-.8109 0-1.5151-.1351-2.1126-.4054-.5976-.2704-1.06-.6545-1.3872-1.1524-.3272-.5121-.4908-1.1025-.4908-1.7712 0-.6403.1423-1.2093.4268-1.7073.2846-.5121.7256-.9389 1.3231-1.2804.5975-.3414 1.3516-.5833 2.262-.7255l3.7986-.6189v2.134l-3.265.5548c-.5549.0997-.9674.2775-1.2377.5336-.2704.2561-.4055.5904-.4055 1.003 0 .3984.1494.7184.4481.9602.313.2277.6971.3415 1.1524.3415.5833 0 1.0954-.1209 1.5365-.3628.4553-.2561.8038-.6046 1.0457-1.0456.256-.4411.384-.9248.384-1.4512v-2.9876c0-.4979-.1991-.9105-.5974-1.2377-.3842-.3414-.8963-.5122-1.5366-.5122-.5975 0-1.1309.1636-1.6005.4909-.4552.313-.7896.7326-1.003 1.259l-2.2834-1.1097c.2277-.6117.5833-1.1381 1.067-1.5791.498-.4553 1.0813-.811 1.75-1.067.6687-.2561 1.3942-.3842 2.1767-.3842.9531 0 1.7925.1779 2.5181.5335.7255.3415 1.2875.8252 1.6859 1.4512.4126.6117.6188 1.3302.6188 2.1553v7.7251h-2.6462v-1.9845l.5976-.0427c-.2988.4978-.6544.9175-1.067 1.259-.4126.3272-.8821.5833-1.4085.7682-.5263.1707-1.1097.2561-1.7499.2561z"/><path d="m69.1567 21.9911v-11.609h2.7957v11.609zm1.3978-12.91074c-.7719 0-1.3978-.62582-1.3978-1.39777 0-.77198.6259-1.44201 1.3978-1.44201.772 0 1.3979.67003 1.3979 1.442 0 .77196-.6259 1.39778-1.3979 1.39778z"/><path d="m74.1067 21.9911v-11.609h2.6248v2.2834l-.2134-.4055c.2703-.6971.7114-1.2234 1.3231-1.5791.626-.37 1.3515-.5549 2.1767-.5549.8536 0 1.6075.1849 2.262.5549.6689.3699 1.188.8891 1.5581 1.5578.3693.6544.5544 1.4156.5544 2.2834v7.469h-2.7951v-6.8074c0-.5122-.1001-.9533-.2988-1.3231-.1994-.3699-.4766-.6545-.8323-.8536-.3413-.2134-.747-.3201-1.2166-.3201-.4552 0-.8607.1067-1.2163.3201-.3557.1991-.6331.4837-.8323.8536-.1992.3698-.2988.8109-.2988 1.3231v6.8074z"/><path d="m85.2625 21.9911 5.6982-15.89835h2.4754l5.6975 15.89835h-2.2407l-1.3018-3.7345h-6.7862l-1.3018 3.7345zm4.2042-5.655h5.4635l-3.0306-8.72821h.5976z"/><path d="m104.647 22.2472c-1.081 0-2.056-.2632-2.923-.7895-.854-.5264-1.53-1.2449-2.0279-2.1554-.4975-.9105-.7466-1.9277-.7466-3.0516 0-1.1524.2491-2.1767.7466-3.073.4979-.9105 1.1739-1.629 2.0279-2.1554.867-.5264 1.842-.7895 2.923-.7895.953 0 1.8.2062 2.539.6188.741.3983 1.324.939 1.751 1.6218l-.321.4909v-7.12763h2.006v16.15443h-1.942v-2.4541l.257.3415c-.399.754-.982 1.3373-1.751 1.7499-.753.4126-1.6.6188-2.539.6188zm.171-1.9206c.725 0 1.373-.1778 1.941-.5335.57-.3557 1.018-.8394 1.345-1.4511.342-.626.512-1.3231.512-2.0913 0-.7825-.17-1.4796-.512-2.0914-.327-.626-.775-1.1168-1.345-1.4724-.568-.3557-1.216-.5336-1.941-.5336-.712 0-1.359.185-1.942.5549-.569.3557-1.018.8394-1.345 1.4511-.326.5975-.491 1.2947-.491 2.0914 0 .7682.165 1.4653.491 2.0913.327.6117.776 1.0954 1.345 1.4511s1.217.5335 1.942.5335z"/><path d="m112.627 21.9911v-11.5023h1.942v2.3475l-.278-.3629c.286-.7255.741-1.2804 1.366-1.6645.627-.3841 1.331-.5761 2.113-.5761.896 0 1.7.2489 2.412.7468.725.498 1.223 1.1524 1.493 1.9633l-.554.0214c.299-.8963.803-1.5721 1.515-2.0274.711-.4694 1.501-.7041 2.369-.7041.796 0 1.514.1848 2.154.5548.655.3699 1.174.882 1.559 1.5364.383.6545.576 1.3943.576 2.2194v7.4477h-2.006v-6.8074c0-.6403-.114-1.1809-.342-1.6219-.227-.4411-.54-.7825-.938-1.0243-.385-.2561-.84-.3842-1.366-.3842-.512 0-.975.1281-1.388.3842-.398.2418-.718.5904-.96 1.0456-.227.441-.341.9746-.341 1.6006v6.8074h-2.006v-6.8074c0-.6403-.114-1.1809-.342-1.6219-.227-.4411-.541-.7825-.939-1.0243-.384-.2561-.839-.3842-1.366-.3842-.512 0-.974.1281-1.386.3842-.399.2418-.719.5904-.961 1.0456-.227.441-.341.9746-.341 1.6006v6.8074z"/><path d="m131.046 22.1534v-11.5024h1.984v11.5024z"/><path d="m135.042 21.9911v-11.5023h1.942v2.2408l-.32-.1921c.285-.7256.74-1.2876 1.366-1.6859.64-.4126 1.387-.6188 2.241-.6188.825 0 1.557.1848 2.197.5548.655.3699 1.168.882 1.537 1.5364.385.6545.577 1.3943.577 2.2194v7.4477h-2.006v-6.8074c0-.6403-.114-1.1809-.342-1.6219-.228-.4411-.555-.7825-.982-1.0243-.412-.2561-.889-.3842-1.43-.3842-.54 0-1.023.1281-1.45.3842-.413.2418-.741.5904-.983 1.0456-.241.441-.362.9746-.362 1.6006v6.8074z"/><path d="m131.978 9.24139c.699 0 1.265-.56622 1.265-1.26463 0-.69842-.566-1.26461-1.265-1.26461s-1.264.56618-1.264 1.2646.565 1.26464 1.264 1.26464z"/><path d="m0 11.8424c0-5.58255 0-8.37383 1.73428-10.10812 1.73429-1.73428 4.52557-1.73428 10.10812-1.73428h3.5528c5.5825 0 8.3738 0 10.1081 1.73428 1.7343 1.73429 1.7343 4.52557 1.7343 10.10812v3.5528c0 5.5825 0 8.3738-1.7343 10.1081s-4.5256 1.7343-10.1081 1.7343h-3.5528c-5.58255 0-8.37383 0-10.10812-1.7343-1.73428-1.7343-1.73428-4.5256-1.73428-10.1081z" fill-opacity=".21"/></g><path d="m21.9049 11.2503c0 3.2702-2.651 5.9212-5.9212 5.9212s-5.9212-2.651-5.9212-5.9212c0-3.27016 2.651-5.92117 5.9212-5.92117s5.9212 2.65101 5.9212 5.92117z" fill="url(#a)"/><path d="m11.8387 18.9479c0 1.6351-1.3255 2.9606-2.96059 2.9606-1.63512 0-2.96063-1.3255-2.96063-2.9606s1.32551-2.9606 2.96063-2.9606c1.63509 0 2.96059 1.3255 2.96059 2.9606z" fill="url(#b)"/></g></svg>