<svg width="27" height="24" viewBox="0 0 27 24" fill="none" xmlns="http://www.w3.org/2000/svg">
<path fill-rule="evenodd" clip-rule="evenodd" d="M21.7919 7.74535C24.5937 8.70923 26.403 10.2204 26.403 11.7814C26.403 13.4102 24.4679 15.0023 21.4962 15.9882C21.3386 16.0397 21.1776 16.0895 21.0143 16.1385C21.0715 16.3737 21.1245 16.6049 21.1695 16.8328C21.756 19.7955 21.3034 22.233 19.9123 23.0376C18.5662 23.8169 16.3893 23.0515 14.1862 21.1556C13.9464 20.9487 13.7124 20.7351 13.4845 20.5152C13.3032 20.69 13.1227 20.8566 12.943 21.0143C10.6672 23.0033 8.33102 23.8283 6.9391 23.0262C5.59129 22.2477 5.16653 19.9802 5.70974 17.1228C5.76692 16.8222 5.83472 16.5126 5.91395 16.1973C5.67835 16.1299 5.4444 16.0569 5.21228 15.9784C2.35329 15.0006 0.469635 13.389 0.469635 11.7814C0.469635 10.2253 2.22342 8.72639 4.96885 7.76822C5.27599 7.66039 5.5962 7.55992 5.92865 7.46598C5.85764 7.18116 5.79363 6.89463 5.73669 6.60666C5.16817 3.69948 5.56842 1.37717 6.9195 0.594627C8.32938 -0.221408 10.677 0.654257 13.0189 2.73478C13.1619 2.86139 13.3048 2.99372 13.4486 3.13095C13.6634 2.92347 13.8791 2.72498 14.0939 2.53792C16.3288 0.59381 18.5417 -0.219774 19.8944 0.561136C21.3051 1.3739 21.7184 3.8457 21.087 6.91298C21.0478 7.09922 21.0053 7.28954 20.9579 7.48232C21.2438 7.56482 21.5232 7.65386 21.7919 7.74535ZM19.3414 1.52094C18.5261 1.05043 16.7372 1.70881 14.8225 3.37519C14.6188 3.55213 14.4194 3.73407 14.2246 3.92085C15.0164 4.78241 15.7489 5.69666 16.417 6.6573C17.6407 6.77166 18.8088 6.95627 19.8846 7.20459C19.9279 7.0306 19.9679 6.85825 20.0022 6.68997C20.547 4.04092 20.2089 2.02085 19.3405 1.52012L19.3414 1.52094ZM17.0558 13.8905C17.4601 13.1888 17.8326 12.4855 18.1692 11.792C17.8196 11.0863 17.4472 10.3922 17.0525 9.71069C16.6595 9.03128 16.2427 8.36595 15.8028 7.71594C14.2291 7.59612 12.6485 7.59612 11.0748 7.71594C10.1856 9.01847 9.39647 10.3865 8.71412 11.8084C9.40121 13.2327 10.1947 14.6032 11.0879 15.9081C11.8451 15.9572 12.6301 15.9817 13.4372 15.9817C14.2467 15.9817 15.0423 15.9531 15.8117 15.8983C16.2478 15.2425 16.6627 14.5729 17.0558 13.8905ZM18.7679 13.0704C18.29 13.9896 17.7733 14.8882 17.2192 15.7636C18.0323 15.6685 18.84 15.5308 19.6387 15.3511C19.3882 14.5761 19.0973 13.8149 18.7671 13.0704H18.7679ZM13.4796 18.9272C14.0186 18.3291 14.5268 17.7039 15.0022 17.0542C14.4876 17.0771 13.9648 17.0893 13.4372 17.0893C12.9225 17.0893 12.4161 17.0787 11.9194 17.0599C12.4086 17.7076 12.9293 18.3308 13.4796 18.9272ZM9.67719 15.7832C9.11921 14.9169 8.60212 14.0251 8.12762 13.1104C7.80965 13.8593 7.52886 14.6235 7.28626 15.4001C8.02715 15.5602 8.82766 15.6884 9.67719 15.784V15.7832ZM8.8587 9.1634C9.11519 8.71822 9.38149 8.28202 9.6535 7.85726C8.8639 7.95398 8.07937 8.08837 7.3026 8.25996C7.52805 8.98696 7.80333 9.73928 8.1268 10.5047C8.35797 10.0554 8.60221 9.60777 8.8587 9.1634ZM13.4494 4.71238C12.9069 5.30106 12.3933 5.91579 11.9105 6.55438C12.9315 6.50651 13.9543 6.50678 14.9753 6.55519C14.4979 5.91552 13.9883 5.30045 13.4486 4.71238H13.4494ZM18.0107 9.15605C18.2721 9.60859 18.5212 10.0587 18.7565 10.5047C19.0849 9.73765 19.3626 8.9886 19.5864 8.27222C18.8054 8.09573 18.0162 7.95779 17.2216 7.85889C17.4912 8.27957 17.7542 8.7125 18.0107 9.15605ZM6.82392 6.39427C6.8762 6.65567 6.93583 6.92196 7.00363 7.19316C8.14415 6.93917 9.29999 6.75963 10.4638 6.65567C11.1388 5.69653 11.8767 4.78319 12.6726 3.92166C12.545 3.79944 12.4151 3.67961 12.2829 3.56225C10.2621 1.76681 8.34327 1.05125 7.47495 1.55361C6.66055 2.02493 6.33708 3.90369 6.82392 6.39427ZM5.57087 14.9304C5.77672 14.9998 5.99073 15.0668 6.21128 15.1305C6.53802 14.0621 6.96932 12.9413 7.49129 11.8084C6.99748 10.7457 6.57479 9.65145 6.22599 8.53279C5.9164 8.62101 5.61825 8.71495 5.3348 8.81461C2.98636 9.63309 1.57729 10.8371 1.57729 11.7814C1.57729 12.225 1.90321 12.7723 2.54526 13.3236C3.26163 13.9363 4.30557 14.4974 5.57087 14.9304ZM9.31205 21.9978C10.2008 21.6833 11.2088 21.0592 12.2143 20.1803C12.3777 20.0365 12.5427 19.8846 12.7077 19.7253C11.9068 18.8577 11.1635 17.9387 10.4826 16.9741C9.30763 16.8853 8.14008 16.7163 6.98811 16.4685C6.91459 16.7626 6.85088 17.0501 6.79778 17.3295C6.33463 19.7727 6.67526 21.5942 7.49211 22.0656C7.87685 22.2869 8.51317 22.2796 9.31124 21.9978H9.31205ZM20.0822 17.046C20.0414 16.8418 19.9948 16.6319 19.9417 16.4195C18.7851 16.6796 17.6121 16.8605 16.4309 16.9611C15.7687 17.929 15.0422 18.8514 14.2565 19.722C14.4746 19.9311 14.6927 20.1305 14.9075 20.3151C16.7928 21.9373 18.5408 22.5532 19.3577 22.0795C19.7416 21.8573 20.052 21.3018 20.2072 20.4703C20.3788 19.5431 20.3428 18.3579 20.0822 17.046ZM21.1474 14.9361C23.7148 14.0849 25.2962 12.7845 25.2962 11.7814C25.2962 10.8404 23.8316 9.6192 21.4325 8.79255C21.1842 8.7076 20.9261 8.62673 20.6614 8.54913C20.3428 9.58163 19.9164 10.6729 19.3994 11.7871C19.9103 12.8512 20.3489 13.9485 20.712 15.0717C20.8599 15.0284 21.0061 14.9827 21.1474 14.9361Z" fill="#61DAFB"/>
<path fill-rule="evenodd" clip-rule="evenodd" d="M13.4372 9.46558C14.0514 9.46568 14.6403 9.70977 15.0746 10.1441C15.5088 10.5785 15.7527 11.1676 15.7525 11.7818C15.7524 12.3959 15.5084 12.9849 15.074 13.4191C14.6396 13.8534 14.0505 14.0972 13.4364 14.0971C12.8222 14.0971 12.2332 13.8531 11.7989 13.4188C11.3646 12.9846 11.1206 12.3955 11.1206 11.7813C11.1206 11.1672 11.3646 10.5781 11.7989 10.1438C12.2332 9.70956 12.8222 9.46558 13.4364 9.46558" fill="#61DAFB"/>
</svg>
