<svg width="148" height="28" viewBox="0 0 148 28" fill="none" xmlns="http://www.w3.org/2000/svg">
<g opacity="" clip-path="url(#clip0_562_921)">
<path d="M63.2515 16.5896C63.2795 15.7776 63.1675 15.0496 62.9155 14.3776C62.6635 13.7056 62.2995 13.1316 61.8235 12.6276C61.3615 12.1236 60.8155 11.7456 60.1715 11.4796C59.5275 11.1996 58.8275 11.0596 58.0715 11.0596C57.2595 11.0596 56.5035 11.2136 55.8035 11.5076C55.1175 11.7736 54.5155 12.1796 54.0115 12.7256C53.5075 13.2296 53.1155 13.8596 52.8355 14.5596C52.5555 15.2736 52.4155 16.0716 52.4155 16.9256C52.4155 18.0316 52.6675 18.9976 53.1715 19.8656C53.6755 20.7196 54.3755 21.3776 55.2715 21.8676C56.1675 22.3716 57.2175 22.6096 58.4215 22.6096C58.9255 22.6096 59.4435 22.5396 59.9615 22.4136C60.4795 22.3016 60.9835 22.1196 61.4735 21.8676C61.9635 21.6156 62.4115 21.3216 62.8175 20.9576L61.3895 18.9556C60.9275 19.3336 60.4935 19.5996 60.0875 19.7536C59.6815 19.9076 59.2335 19.9776 58.7435 19.9776C58.0295 19.9776 57.3995 19.8516 56.8675 19.5856C56.3495 19.3056 55.9435 18.9276 55.6495 18.4236C55.4955 18.1436 55.3835 17.8496 55.3275 17.5136H63.2375L63.2515 16.5896ZM60.4375 15.6796H55.3415C55.3835 15.4276 55.4675 15.2176 55.5655 15.0076C55.7895 14.5456 56.1115 14.1956 56.5315 13.9576C56.9655 13.7196 57.4975 13.6076 58.1135 13.6076C58.5335 13.6076 58.9115 13.6776 59.2475 13.8596C59.5835 14.0276 59.8495 14.2656 60.0595 14.5596C60.2835 14.8676 60.4095 15.2176 60.4375 15.5956V15.6796ZM73.0378 17.9896C72.9258 17.6676 72.7438 17.3736 72.5058 17.1216C72.2258 16.8276 71.8478 16.5756 71.3718 16.3516C70.9098 16.1276 70.3498 15.9316 69.6778 15.7356C69.1598 15.6096 68.7398 15.4836 68.4318 15.3716C68.1378 15.2596 67.9138 15.1476 67.7598 15.0776C67.6198 14.9656 67.5078 14.8536 67.4238 14.7136C67.3538 14.5736 67.3258 14.4336 67.3258 14.2656C67.3258 14.1256 67.3538 13.9716 67.4098 13.8596C67.4798 13.7196 67.5778 13.6076 67.7038 13.5096C67.8298 13.4396 67.9838 13.3696 68.1658 13.3276C68.3618 13.2856 68.5718 13.2716 68.8098 13.2716C69.0758 13.2716 69.3838 13.3276 69.7198 13.4396C70.0558 13.5516 70.3778 13.6916 70.6858 13.9016C71.0078 14.0836 71.2878 14.3076 71.5398 14.5456L73.1358 12.7816C72.7858 12.4316 72.3798 12.1236 71.9038 11.8716C71.4418 11.6196 70.9378 11.4096 70.3918 11.2696C69.8458 11.1296 69.2858 11.0596 68.7118 11.0596C68.1378 11.0596 67.5918 11.1436 67.0735 11.3116C66.5555 11.4656 66.0935 11.6896 65.6875 11.9836C65.2955 12.2776 64.9875 12.6276 64.7635 13.0476C64.5395 13.4536 64.4275 13.9156 64.4275 14.4196C64.4275 14.8396 64.4835 15.2316 64.6095 15.5676C64.7495 15.9036 64.9455 16.2256 65.1975 16.5196C65.4915 16.8276 65.8835 17.1076 66.3735 17.3596C66.8775 17.5976 67.4938 17.8076 68.2078 17.9896C68.6698 18.1156 69.0478 18.2276 69.3418 18.3396C69.6358 18.4516 69.8458 18.5216 69.9858 18.5916C70.2378 18.7736 70.3638 19.0256 70.3638 19.3336C70.3638 19.4876 70.3358 19.6276 70.2658 19.7676C70.2098 19.9076 70.1118 20.0196 69.9858 20.1036C69.8598 20.2016 69.7058 20.2716 69.5238 20.3276C69.3558 20.3696 69.1738 20.3836 68.9638 20.3836C68.4318 20.3836 67.8998 20.2856 67.3678 20.0896C66.8355 19.8796 66.3455 19.5436 65.9115 19.0816L64.0635 20.6776C64.5535 21.2796 65.1975 21.7556 65.9955 22.1056C66.8075 22.4416 67.7318 22.6096 68.7678 22.6096C69.6078 22.6096 70.3638 22.4696 71.0358 22.1756C71.7078 21.8536 72.2398 21.4336 72.6178 20.9156C73.0098 20.3696 73.2058 19.7396 73.2058 19.0536C73.2058 18.6756 73.1498 18.3116 73.0378 17.9896ZM85.1751 13.8736C84.6711 13.0056 83.9711 12.3196 83.0751 11.8156C82.1931 11.3116 81.1991 11.0596 80.0791 11.0596C78.9451 11.0596 77.9231 11.3116 77.0271 11.8156C76.1451 12.3196 75.4451 13.0056 74.9271 13.8736C74.4231 14.7276 74.1718 15.7216 74.1718 16.8276C74.1718 17.9476 74.4231 18.9416 74.9271 19.8096C75.4451 20.6776 76.1451 21.3776 77.0271 21.8676C77.9231 22.3716 78.9451 22.6096 80.0791 22.6096C81.1991 22.6096 82.1931 22.3716 83.0751 21.8676C83.9711 21.3776 84.6711 20.6776 85.1751 19.8096C85.6791 18.9416 85.9311 17.9476 85.9311 16.8276C85.9311 15.7216 85.6791 14.7276 85.1751 13.8736ZM82.5571 18.4656C82.3191 18.9416 81.9831 19.3336 81.5491 19.6136C81.1151 19.8656 80.6251 20.0056 80.0791 20.0056C79.5191 20.0056 79.0151 19.8656 78.5811 19.6136C78.1471 19.3336 77.8111 18.9416 77.5591 18.4656C77.3071 17.9896 77.1811 17.4296 77.1951 16.8276C77.1811 16.2256 77.3071 15.6656 77.5591 15.1896C77.8111 14.7276 78.1471 14.3356 78.5811 14.0696C79.0151 13.7896 79.5191 13.6356 80.0791 13.6356C80.6251 13.6356 81.1151 13.7896 81.5491 14.0696C81.9831 14.3216 82.3191 14.7136 82.5571 15.1896C82.8091 15.6656 82.9351 16.2256 82.9351 16.8276C82.9351 17.4296 82.8091 17.9896 82.5571 18.4656ZM95.0031 11.2836V17.9476C95.0031 18.2556 94.9471 18.5356 94.8351 18.8156C94.7231 19.0676 94.5691 19.3056 94.3731 19.5016C94.1771 19.6976 93.9391 19.8516 93.6591 19.9636C93.3791 20.0616 93.0851 20.1036 92.7631 20.1036C92.3151 20.1036 91.9371 20.0196 91.6291 19.8096C91.3211 19.6276 91.0831 19.3336 90.9151 18.9836C90.7471 18.5916 90.6631 18.1576 90.6631 17.6536V11.2836H87.6811V18.1296C87.6811 19.0676 87.8351 19.8796 88.1431 20.5516C88.4651 21.2096 88.9131 21.7276 89.4871 22.0776C90.0751 22.4276 90.7751 22.6096 91.5871 22.6096C92.2171 22.6096 92.8051 22.4976 93.3511 22.2596C93.8971 22.0216 94.3591 21.6856 94.7511 21.2656C94.8771 21.1256 94.9891 20.9856 95.0871 20.8456L95.1571 22.3996H97.9851V11.2836H95.0031ZM107.491 11.1296C107.267 11.0736 107.043 11.0596 106.805 11.0596C106.245 11.0596 105.699 11.1856 105.181 11.4656C104.677 11.7316 104.243 12.0956 103.865 12.5716C103.725 12.7396 103.599 12.9216 103.501 13.1036L103.445 11.2836H100.561V22.3996H103.571V16.6456C103.571 16.2956 103.627 15.9736 103.739 15.6796C103.865 15.3856 104.033 15.1336 104.243 14.9236C104.453 14.6996 104.691 14.5316 104.971 14.4196C105.265 14.2936 105.587 14.2236 105.923 14.2236C106.175 14.2236 106.413 14.2656 106.651 14.3356C106.889 14.3916 107.099 14.4616 107.267 14.5456L108.065 11.2696C107.911 11.2136 107.715 11.1576 107.491 11.1296ZM115.933 19.3756C115.653 19.5856 115.359 19.7396 115.037 19.8656C114.715 19.9636 114.365 20.0056 114.001 20.0056C113.441 20.0056 112.937 19.8656 112.489 19.5856C112.041 19.2916 111.691 18.9136 111.425 18.4516C111.173 17.9756 111.047 17.4296 111.047 16.8276C111.047 16.2256 111.173 15.6656 111.425 15.1896C111.677 14.7276 112.013 14.3496 112.447 14.0836C112.895 13.8036 113.413 13.6636 113.987 13.6636C114.351 13.6636 114.701 13.7336 115.037 13.8596C115.387 13.9716 115.709 14.1536 116.003 14.3776C116.297 14.5876 116.535 14.8256 116.731 15.0916L118.369 13.1176C117.907 12.4736 117.263 11.9696 116.437 11.6056C115.611 11.2416 114.701 11.0596 113.707 11.0596C112.643 11.0596 111.691 11.3116 110.851 11.8156C110.011 12.3196 109.353 13.0196 108.863 13.9016C108.387 14.7696 108.149 15.7356 108.149 16.8276C108.149 17.9336 108.387 18.9276 108.863 19.7956C109.353 20.6636 110.011 21.3496 110.851 21.8536C111.691 22.3576 112.643 22.6096 113.707 22.6096C114.645 22.6096 115.541 22.4276 116.381 22.0636C117.221 21.6856 117.879 21.1956 118.355 20.5936L116.731 18.6196C116.493 18.9136 116.227 19.1656 115.933 19.3756ZM129.947 16.5896C129.975 15.7776 129.863 15.0496 129.611 14.3776C129.359 13.7056 128.995 13.1316 128.519 12.6276C128.057 12.1236 127.497 11.7456 126.853 11.4796C126.209 11.1996 125.509 11.0596 124.753 11.0596C123.941 11.0596 123.185 11.2136 122.485 11.5076C121.799 11.7736 121.211 12.1796 120.707 12.7256C120.203 13.2296 119.811 13.8596 119.531 14.5596C119.251 15.2736 119.111 16.0716 119.111 16.9256C119.111 18.0316 119.363 18.9976 119.867 19.8656C120.371 20.7196 121.071 21.3776 121.967 21.8676C122.863 22.3716 123.913 22.6096 125.117 22.6096C125.621 22.6096 126.125 22.5396 126.643 22.4136C127.161 22.3016 127.665 22.1196 128.155 21.8676C128.645 21.6156 129.093 21.3216 129.499 20.9576L128.071 18.9556C127.609 19.3336 127.175 19.5996 126.769 19.7536C126.363 19.9076 125.915 19.9776 125.425 19.9776C124.711 19.9776 124.095 19.8516 123.563 19.5856C123.045 19.3056 122.639 18.9276 122.345 18.4236C122.191 18.1436 122.079 17.8496 122.023 17.5136H129.919L129.947 16.5896ZM127.133 15.6796H122.037C122.079 15.4276 122.163 15.2176 122.261 15.0076C122.485 14.5456 122.807 14.1956 123.227 13.9576C123.661 13.7196 124.179 13.6076 124.795 13.6076C125.215 13.6076 125.593 13.6776 125.929 13.8596C126.265 14.0276 126.545 14.2656 126.755 14.5596C126.979 14.8676 127.105 15.2176 127.133 15.5956V15.6796Z" fill="white"/>
<path d="M48.3556 16.6592C48.4676 16.6172 48.5796 16.5612 48.6916 16.4912C49.4336 16.0712 50.0076 15.5112 50.4276 14.7972C50.8616 14.0692 51.0856 13.2712 51.0856 12.3892C51.0856 11.4792 50.8616 10.6952 50.4276 9.99522C50.0076 9.29522 49.4336 8.73522 48.6916 8.32922C47.9496 7.90922 47.1236 7.69922 46.2136 7.69922H39.7036V22.3992H42.7416V17.1212H45.0656L48.0336 22.3992L51.6876 22.4132L48.3556 16.6592ZM42.7416 10.4292H45.6676C46.1296 10.4292 46.5356 10.5132 46.8856 10.6952C47.2356 10.8632 47.5016 11.1012 47.6836 11.4092C47.8656 11.7312 47.9496 12.0952 47.9496 12.5152C47.9496 12.9072 47.8796 13.2572 47.7256 13.5792C47.5716 13.8872 47.3476 14.1392 47.0536 14.3212C46.7736 14.4892 46.4376 14.5592 46.0596 14.5592H42.7416V10.4292Z" fill="white"/>
<path d="M132.918 21.0215C133.293 21.0215 133.597 21.3253 133.597 21.6999C133.597 22.0746 133.293 22.3784 132.918 22.3784H132.879C132.505 22.3784 132.201 22.0746 132.201 21.6999C132.201 21.3253 132.505 21.0215 132.879 21.0215H132.918Z" fill="white"/>
<path d="M137.464 15.217C136.981 15.1955 136.641 15.2745 136.447 15.454C136.252 15.6263 136.155 15.9243 136.155 16.3479V16.4447H137.464V17.5001H136.155V22.3786H134.911V17.5001H134.099V16.4447H134.911V16.2509C134.911 15.5257 135.123 14.9837 135.549 14.6247C135.974 14.2586 136.613 14.097 137.464 14.1401V15.217Z" fill="white"/>
<path d="M139.158 16.4448L140.943 20.8064L142.598 16.4448H143.973L140.37 25.2002H138.996L140.284 22.2387L137.773 16.4448H139.158Z" fill="white"/>
<path d="M144.61 14.7215C144.61 14.5133 144.682 14.341 144.827 14.2046C144.971 14.0682 145.162 14 145.4 14C145.638 14 145.829 14.0682 145.973 14.2046C146.125 14.341 146.201 14.5133 146.201 14.7215C146.201 14.9297 146.125 15.0985 145.973 15.2277C145.829 15.3569 145.638 15.4215 145.4 15.4215C145.162 15.4215 144.971 15.3569 144.827 15.2277C144.682 15.0985 144.61 14.9297 144.61 14.7215ZM146.017 16.4446V22.3785H144.783V16.4446H146.017Z" fill="white"/>
<path fill-rule="evenodd" clip-rule="evenodd" d="M19.5991 0L5.71108 5.278V8.414C3.14907 8.596 0.839074 10.444 0.601074 10.64L1.95907 10.99C6.06108 12.054 5.72508 19.068 5.68308 19.838L17.1771 28L30.6731 23.338L30.7851 6.86C30.7851 6.86 23.9111 2.702 19.5991 0ZM7.19508 19.124C7.27908 17.416 7.19508 12.32 3.86308 10.234C4.40908 10.052 5.02507 9.94 5.69708 9.898C7.72708 9.73 11.3111 10.122 16.5331 12.796L16.5611 25.774L7.19508 19.124ZM26.0391 20.972L24.3031 19.306L22.1331 22.232V14.728L26.0391 13.16V20.972ZM17.3311 11.564L8.09108 5.936L19.4451 1.61L28.4471 7.126L17.3311 11.564Z" fill="white"/>
<path d="M13.1242 18.6825C13.1697 18.6895 13.2117 18.693 13.2572 18.6895C13.5442 18.686 13.7682 18.574 13.9327 18.35C14.1042 18.126 14.1917 17.8145 14.1952 17.405C14.1987 16.9815 14.1147 16.558 13.9502 16.124C13.7927 15.69 13.5722 15.2805 13.2852 14.9025C13.0017 14.514 12.6832 14.206 12.3332 13.9715L9.82016 12.2915L9.76416 19.113L10.9367 19.897L10.9577 17.447L11.8537 18.049L12.9807 21.262L14.3912 22.2105L13.1242 18.6825ZM12.8932 17.09C12.8337 17.1915 12.7462 17.251 12.6307 17.2615C12.5222 17.265 12.3927 17.2125 12.2492 17.1145L10.9682 16.2605L10.9822 14.3425L12.1127 15.0985C12.2912 15.2175 12.4452 15.361 12.5817 15.536C12.7147 15.704 12.8162 15.8825 12.8862 16.0715C12.9562 16.2675 12.9877 16.46 12.9842 16.6525C12.9842 16.8345 12.9562 16.978 12.8932 17.09Z" fill="white"/>
</g>
<defs>
<clipPath id="clip0_562_921">
<rect width="146.667" height="28" fill="white" transform="translate(0.601074)"/>
</clipPath>
</defs>
</svg>
