<svg width="16" height="16" viewBox="0 0 16 16" fill="none" xmlns="http://www.w3.org/2000/svg"><g clip-path="url(#clip0_695_2126)"><path fill-rule="evenodd" clip-rule="evenodd" d="M7.66658 1.8335C4.44492 1.8335 1.83325 4.44517 1.83325 7.66683C1.83325 10.8885 4.44492 13.5002 7.66658 13.5002C10.8882 13.5002 13.4999 10.8885 13.4999 7.66683C13.4999 4.44517 10.8882 1.8335 7.66658 1.8335ZM0.833252 7.66683C0.833252 3.89288 3.89264 0.833496 7.66658 0.833496C11.4405 0.833496 14.4999 3.89288 14.4999 7.66683C14.4999 9.37384 13.874 10.9347 12.8392 12.1323L15.0201 14.3133C15.2154 14.5085 15.2154 14.8251 15.0201 15.0204C14.8249 15.2156 14.5083 15.2156 14.313 15.0204L12.1321 12.8394C10.9344 13.8742 9.37359 14.5002 7.66658 14.5002C3.89264 14.5002 0.833252 11.4408 0.833252 7.66683Z" fill="#64748B"></path></g><defs><clipPath id="clip0_695_2126"><rect width="16" height="16" fill="white"></rect></clipPath></defs></svg>