<svg fill="none" height="61" viewBox="0 0 61 61" width="61" xmlns="http://www.w3.org/2000/svg"><rect fill="#0063f7" height="60" rx="30" width="60" x=".833374" y=".166626"/><g fill="#fff"><path d="m50.7691 28.4851c-.0197-.1996-.1121-.3849-.2598-.5206-.1477-.1358-.3402-.2124-.5409-.2154h-19.9523c-.5418.0132-1.0708.1678-1.5343.4485s-.8455.6777-1.1079 1.1515c-.243.4237-.3708.9036-.3708 1.392s.1278.9682.3708 1.392c.0694.1332.1723.2461.2987.3275.1263.0814.2717.1284.4218.1365h21.9221c.2006-.003.3932-.0797.5409-.2154.1477-.1358.2401-.3211.2598-.5206 0-.624 0-1.152 0-1.6s-.0001-1.168-.0481-1.776z" opacity=".88"/><path d="m33.1058 32.5333h-5.06c-.1436-.0102-.2826-.0548-.4053-.13-.1226-.0752-.2253-.1788-.2994-.302l9.3037 16.464c.0712.1233.1741.2253.2979.2957.1239.0703.2642.1063.4066.1043.0901.0152.1822.0152.2723 0 1.0581-.3806 2.0814-.8517 3.0586-1.408.0916-.0514.1718-.1206.2361-.2036s.1113-.178.1382-.2795c.0269-.1014.0332-.2073.0184-.3112-.0149-.1039-.0504-.2038-.1046-.2937z" opacity=".72"/><path d="m37.294 49.1092c.0079.0001.0158.0001.0237 0 .0847.0153.1716.0153.2563 0l.5123-.208.4645-.192c.7083-.2939 1.3982-.6305 2.0657-1.008 3.1221-1.7572 5.7162-4.3178 7.5128-7.4157s2.7302-6.62 2.7036-10.2003c0-.592-.0321-1.056-.0801-1.6-.0159-.1981-.105-.3833-.25-.5194-.1451-.136-.3357-.2132-.5347-.2166h-3.2026c-.1123.0013-.2232.0262-.3253.073-.102.0469-.193.1147-.2672.199-.0746.0811-.1306.1776-.1638.2827-.0332.105-.0428.2161-.0283.3253v1.6c-.0041 2.5531-.6516 5.0641-1.883 7.3012s-3.007 4.1282-5.1628 5.4988c-.0853.0548-.1682.1141-.2514.1737-.0474.034-.095.0681-.1431.1014-.0792.0158-.1561.0421-.2288.0783-2.2834 1.2982-4.8669 1.9767-7.4941 1.968-4.032-.0084-7.8964-1.6126-10.7474-4.4613-2.8511-2.8487-4.4566-6.71-4.465-10.7387.0084-4.0287 1.6139-7.8899 4.465-10.7387 2.851-2.8487 6.7154-4.4528 10.7474-4.4613 2.6259.0009 5.2071.6787 7.4941 1.968.1195.0758.2588.1148.4003.112h.1761c.1098-.0242.2135-.0708.3044-.1369.0909-.066.1673-.1502.2242-.2471l1.6013-2.784c.1059-.1851.135-.4043.0811-.6107-.0538-.2063-.1865-.3834-.3694-.4933-3.0142-1.7019-6.4179-2.5948-9.88-2.592-5.3061.0085-10.3924 2.1183-14.1444 5.8672s-5.8636 8.8311-5.872 14.1328c.0084 5.3018 2.12 10.3839 5.872 14.1328s8.8383 5.8588 14.1444 5.8672c2.2.0019 4.3764-.3581 6.4442-1.0574z"/></g></svg>