<svg width="97" height="24" viewBox="0 0 97 24" fill="none" xmlns="http://www.w3.org/2000/svg">
<g opacity="">
<g clip-path="url(#clip0_562_934)">
<path opacity="0.72" d="M24.5447 11.0134C24.533 10.8939 24.4777 10.783 24.3893 10.7017C24.301 10.6204 24.1858 10.5745 24.0658 10.5728H12.1305C11.8064 10.5807 11.49 10.6732 11.2127 10.8413C10.9354 11.0093 10.7069 11.247 10.5499 11.5306C10.4046 11.7843 10.3281 12.0716 10.3281 12.364C10.3281 12.6564 10.4046 12.9437 10.5499 13.1974C10.5914 13.2772 10.653 13.3447 10.7286 13.3934C10.8042 13.4422 10.8911 13.4703 10.9809 13.4752H24.0946C24.2146 13.4734 24.3298 13.4275 24.4181 13.3462C24.5064 13.2649 24.5618 13.154 24.5735 13.0345C24.5735 12.661 24.5735 12.3449 24.5735 12.0766C24.5735 11.8084 24.5735 11.3774 24.5447 11.0134Z" fill="white"/>
<path d="M24.5353 11.0134C24.5258 10.8947 24.4725 10.7839 24.3858 10.7024C24.299 10.621 24.185 10.5748 24.066 10.5728H22.1502C22.083 10.5735 22.0167 10.5884 21.9556 10.6165C21.8945 10.6445 21.8401 10.6851 21.7958 10.7356C21.7511 10.7841 21.7176 10.8419 21.6978 10.9048C21.6779 10.9677 21.6721 11.0342 21.6808 11.0996C21.6808 11.4061 21.6808 11.7126 21.6808 12.0575C21.6784 13.586 21.291 15.0893 20.5544 16.4286C19.8178 17.7679 18.7556 18.9001 17.4661 19.7206C17.332 19.8068 17.2075 19.9122 17.0638 19.9888C16.3609 20.3891 15.6068 20.6921 14.8223 20.8893L16.0772 23.1212C16.1198 23.195 16.1813 23.2561 16.2554 23.2981C16.3295 23.3402 16.4134 23.3618 16.4986 23.3606C16.5493 23.3698 16.6012 23.3698 16.6519 23.3606L16.9583 23.2361L17.2362 23.1212C17.6599 22.9452 18.0726 22.7436 18.4719 22.5177C20.3395 21.4656 21.8913 19.9327 22.966 18.078C24.0407 16.2234 24.5992 14.1147 24.5833 11.9713C24.5833 11.6169 24.5641 11.3391 24.5353 11.0134Z" fill="white"/>
<path d="M17.7551 20.1056C17.6907 19.9964 17.5884 19.9146 17.4677 19.8758H17.3336C17.2504 19.8764 17.1685 19.8961 17.0941 19.9332C15.7282 20.7104 14.1828 21.1166 12.6112 21.1114C10.1993 21.1064 7.88764 20.146 6.18216 18.4405C4.47668 16.735 3.5163 14.4234 3.51124 12.0115C3.5163 9.59954 4.47668 7.28786 6.18216 5.58238C7.88764 3.8769 10.1993 2.91653 12.6112 2.91147C14.182 2.91197 15.726 3.31778 17.0941 4.08967C17.1656 4.13506 17.2489 4.15838 17.3336 4.15672H17.4389C17.5046 4.14223 17.5666 4.11433 17.621 4.07477C17.6754 4.03521 17.7211 3.98485 17.7551 3.92683L18.713 2.2601C18.7763 2.14925 18.7937 2.01801 18.7615 1.89448C18.7293 1.77095 18.6499 1.66495 18.5405 1.59915C16.7375 0.580256 14.7014 0.0456447 12.6304 0.0473674C9.45634 0.0524338 6.41372 1.31557 4.16932 3.55997C1.92492 5.80437 0.661805 8.84697 0.656738 12.021C0.661805 15.1951 1.92492 18.2377 4.16932 20.4821C6.41372 22.7265 9.45634 23.9896 12.6304 23.9947C14.7014 23.9964 16.7375 23.4618 18.5405 22.4429C18.5953 22.4121 18.6434 22.3707 18.6819 22.321C18.7204 22.2713 18.7485 22.2144 18.7646 22.1537C18.7806 22.093 18.7844 22.0296 18.7756 21.9674C18.7667 21.9052 18.7454 21.8454 18.713 21.7915L17.7551 20.1056Z" fill="white"/>
<path opacity="0.56" d="M13.9792 13.4369H10.9523C10.8664 13.4307 10.7833 13.404 10.7099 13.359C10.6365 13.314 10.5751 13.252 10.5308 13.1782L16.0962 23.0349C16.1388 23.1087 16.2003 23.1698 16.2744 23.2119C16.3485 23.254 16.4324 23.2756 16.5176 23.2744C16.5715 23.2835 16.6266 23.2835 16.6805 23.2744C17.3134 23.0465 17.9256 22.7645 18.5101 22.4315C18.5649 22.4007 18.6129 22.3593 18.6513 22.3096C18.6898 22.2599 18.7179 22.203 18.734 22.1423C18.7501 22.0815 18.7539 22.0182 18.745 21.9559C18.7361 21.8937 18.7148 21.8339 18.6824 21.7801L13.9792 13.4369Z" fill="white"/>
</g>
<path d="M38.067 8.20391V18.3522H36.2824V8.20391H33.5635V6.52658H40.7783V8.20391H38.067Z" fill="white"/>
<path d="M46.8826 10.8922H48.6135V18.3522H46.8826V17.5709C46.1728 18.2347 45.4095 18.5666 44.5925 18.5666C43.5611 18.5666 42.7084 18.1939 42.0344 17.4484C41.3655 16.6876 41.0311 15.7379 41.0311 14.5992C41.0311 13.481 41.3655 12.5492 42.0344 11.8037C42.7033 11.0582 43.5407 10.6854 44.5466 10.6854C45.4146 10.6854 46.1933 11.0429 46.8826 11.7577V10.8922ZM42.7926 14.5992C42.7926 15.3141 42.9841 15.8962 43.3671 16.3455C43.7602 16.7999 44.2555 17.0271 44.8529 17.0271C45.4912 17.0271 46.0069 16.8076 46.4001 16.3685C46.7932 15.914 46.9898 15.3371 46.9898 14.6375C46.9898 13.938 46.7932 13.361 46.4001 12.9066C46.0069 12.4623 45.4963 12.2402 44.8682 12.2402C44.2759 12.2402 43.7807 12.4649 43.3824 12.9142C42.9892 13.3687 42.7926 13.9303 42.7926 14.5992Z" fill="white"/>
<path d="M52.512 10.8922V18.3522H50.7887V10.8922H52.512ZM50.5283 7.79032C50.5283 7.48907 50.6381 7.22866 50.8576 7.0091C51.0772 6.78954 51.3401 6.67976 51.6465 6.67976C51.958 6.67976 52.2235 6.78954 52.4431 7.0091C52.6626 7.22355 52.7724 7.48651 52.7724 7.79798C52.7724 8.10945 52.6626 8.37497 52.4431 8.59453C52.2286 8.81408 51.9656 8.92386 51.6542 8.92386C51.3427 8.92386 51.0772 8.81408 50.8576 8.59453C50.6381 8.37497 50.5283 8.1069 50.5283 7.79032Z" fill="white"/>
<path d="M56.4181 5.41602V18.3522H54.6948V5.41602H56.4181Z" fill="white"/>
<path d="M65.0116 12.1943H69.898V12.5849C69.898 13.4733 69.7934 14.2597 69.584 14.9439C69.3798 15.577 69.0351 16.1693 68.55 16.7208C67.4523 17.9564 66.0558 18.5743 64.3605 18.5743C62.7062 18.5743 61.2893 17.9769 60.1098 16.7821C58.9303 15.5821 58.3405 14.1422 58.3405 12.4623C58.3405 10.7467 58.9405 9.2915 60.1404 8.09669C61.3403 6.89677 62.8007 6.29681 64.5214 6.29681C65.4456 6.29681 66.3085 6.48573 67.1101 6.86358C67.8761 7.24142 68.6292 7.85415 69.3696 8.70175L68.0982 9.91954C67.128 8.62771 65.946 7.9818 64.552 7.9818C63.301 7.9818 62.2518 8.41326 61.4042 9.27618C60.5565 10.1238 60.1327 11.1858 60.1327 12.4623C60.1327 13.7797 60.6051 14.8647 61.5497 15.7175C62.433 16.5089 63.3904 16.9046 64.4218 16.9046C65.3001 16.9046 66.0889 16.6085 66.7885 16.0162C67.488 15.4187 67.8786 14.7039 67.9603 13.8716H65.0116V12.1943Z" fill="white"/>
<path d="M71.8205 10.8922H73.5438V11.5586C73.8603 11.2267 74.1412 10.9995 74.3862 10.8769C74.6364 10.7493 74.9326 10.6854 75.2747 10.6854C75.7291 10.6854 76.204 10.8335 76.6993 11.1297L75.9104 12.7074C75.5836 12.4726 75.2645 12.3551 74.953 12.3551C74.0135 12.3551 73.5438 13.0649 73.5438 14.4843V18.3522H71.8205V10.8922Z" fill="white"/>
<path d="M79.6557 10.8922V18.3522H77.9324V10.8922H79.6557ZM77.672 7.79032C77.672 7.48907 77.7818 7.22866 78.0013 7.0091C78.2209 6.78954 78.4838 6.67976 78.7902 6.67976C79.1017 6.67976 79.3672 6.78954 79.5868 7.0091C79.8063 7.22355 79.9161 7.48651 79.9161 7.79798C79.9161 8.10945 79.8063 8.37497 79.5868 8.59453C79.3723 8.81408 79.1093 8.92386 78.7979 8.92386C78.4864 8.92386 78.2209 8.81408 78.0013 8.59453C77.7818 8.37497 77.672 8.1069 77.672 7.79032Z" fill="white"/>
<path d="M87.3377 5.41602H89.0687V18.3522H87.3377V17.5709C86.6586 18.2347 85.8902 18.5666 85.0323 18.5666C84.0111 18.5666 83.1635 18.1939 82.4895 17.4484C81.8206 16.6876 81.4862 15.7379 81.4862 14.5992C81.4862 13.4861 81.8206 12.5568 82.4895 11.8113C83.1533 11.0607 83.9882 10.6854 84.994 10.6854C85.8672 10.6854 86.6484 11.0429 87.3377 11.7577V5.41602ZM83.2478 14.5992C83.2478 15.3141 83.4393 15.8962 83.8222 16.3455C84.2154 16.7999 84.7107 17.0271 85.3081 17.0271C85.9463 17.0271 86.462 16.8076 86.8552 16.3685C87.2484 15.914 87.4449 15.3371 87.4449 14.6375C87.4449 13.938 87.2484 13.361 86.8552 12.9066C86.462 12.4623 85.9514 12.2402 85.3234 12.2402C84.7311 12.2402 84.2358 12.4649 83.8375 12.9142C83.4444 13.3687 83.2478 13.9303 83.2478 14.5992Z" fill="white"/>
<path d="M95.5789 12.1636L94.1543 12.9219C93.9296 12.4623 93.6513 12.2326 93.3194 12.2326C93.1612 12.2326 93.0258 12.2862 92.9135 12.3934C92.8012 12.4955 92.745 12.6283 92.745 12.7917C92.745 13.0776 93.0769 13.361 93.7407 13.6418C94.6547 14.035 95.2699 14.3975 95.5865 14.7294C95.9031 15.0613 96.0614 15.5081 96.0614 16.0698C96.0614 16.7897 95.7959 17.3922 95.2648 17.8773C94.7491 18.3368 94.1262 18.5666 93.396 18.5666C92.1451 18.5666 91.2592 17.9564 90.7383 16.7361L92.2089 16.0544C92.4131 16.4119 92.5689 16.6391 92.6761 16.7361C92.8854 16.9301 93.1356 17.0271 93.4267 17.0271C94.0088 17.0271 94.2998 16.7616 94.2998 16.2306C94.2998 15.9242 94.0751 15.6383 93.6258 15.3728C93.4522 15.286 93.2786 15.2017 93.105 15.12C92.9314 15.0383 92.7552 14.9541 92.5765 14.8673C92.0761 14.6222 91.7238 14.3771 91.5196 14.132C91.2592 13.8206 91.129 13.4197 91.129 12.9296C91.129 12.2811 91.3511 11.745 91.7953 11.3212C92.2497 10.8973 92.8012 10.6854 93.4496 10.6854C94.4045 10.6854 95.1142 11.1782 95.5789 12.1636Z" fill="white"/>
</g>
<defs>
<clipPath id="clip0_562_934">
<rect width="23.9473" height="23.9473" fill="white" transform="translate(0.635742 0.0263672)"/>
</clipPath>
</defs>
</svg>
